<?xml version="1.0" encoding="UTF-8"?>
<svg xmlns="http://www.w3.org/2000/svg" xmlns:xlink="http://www.w3.org/1999/xlink" width="111px" height="32px" viewBox="0 0 111 32" version="1.1">
<g id="surface1">
<path style=" stroke:none;fill-rule:nonzero;fill:rgb(82.745099%,92.941177%,100%);fill-opacity:1;" d="M 38.371094 2.957031 C 38.503906 2.960938 38.636719 2.960938 38.773438 2.960938 C 39.199219 2.960938 39.625 2.960938 40.050781 2.964844 C 40.339844 2.964844 40.625 2.964844 40.914062 2.96875 C 41.621094 2.96875 42.328125 2.972656 43.035156 2.976562 C 43.121094 3.226562 43.121094 3.226562 43.203125 3.480469 C 43.316406 3.480469 43.425781 3.480469 43.539062 3.480469 C 43.539062 3.703125 43.539062 3.925781 43.539062 4.152344 C 43.707031 4.210938 43.871094 4.265625 44.042969 4.324219 C 44.371094 4.824219 44.378906 5.039062 44.378906 5.671875 C 44.488281 5.671875 44.597656 5.671875 44.714844 5.671875 C 44.714844 5.949219 44.714844 6.226562 44.714844 6.511719 C 44.824219 6.511719 44.933594 6.511719 45.046875 6.511719 C 45.046875 6.734375 45.046875 6.957031 45.046875 7.1875 C 45.160156 7.1875 45.269531 7.1875 45.382812 7.1875 C 45.464844 7.6875 45.464844 7.6875 45.550781 8.195312 C 45.660156 8.195312 45.773438 8.195312 45.886719 8.195312 C 45.886719 8.472656 45.886719 8.753906 45.886719 9.039062 C 45.996094 9.039062 46.109375 9.039062 46.222656 9.039062 C 46.363281 9.339844 46.503906 9.640625 46.640625 9.945312 C 46.71875 10.113281 46.796875 10.28125 46.878906 10.453125 C 47.058594 10.890625 47.058594 10.890625 47.058594 11.226562 C 47.171875 11.226562 47.28125 11.226562 47.394531 11.226562 C 47.394531 11.503906 47.394531 11.785156 47.394531 12.070312 C 47.507812 12.070312 47.617188 12.070312 47.730469 12.070312 C 48.171875 12.898438 48.511719 13.683594 48.738281 14.597656 C 48.792969 14.484375 48.847656 14.375 48.90625 14.257812 C 49.015625 14.257812 49.125 14.257812 49.238281 14.257812 C 49.238281 14.039062 49.238281 13.816406 49.238281 13.585938 C 49.351562 13.585938 49.460938 13.585938 49.574219 13.585938 C 49.574219 13.308594 49.574219 13.03125 49.574219 12.742188 C 49.6875 12.742188 49.796875 12.742188 49.910156 12.742188 C 49.910156 12.519531 49.910156 12.300781 49.910156 12.070312 C 50.023438 12.070312 50.132812 12.070312 50.246094 12.070312 C 50.414062 11.570312 50.578125 11.070312 50.75 10.554688 C 50.859375 10.554688 50.96875 10.554688 51.085938 10.554688 C 51.085938 10.332031 51.085938 10.109375 51.085938 9.878906 C 51.195312 9.878906 51.304688 9.878906 51.421875 9.878906 C 51.421875 9.601562 51.421875 9.324219 51.421875 9.039062 C 51.53125 9.039062 51.640625 9.039062 51.753906 9.039062 C 51.921875 8.539062 52.085938 8.039062 52.257812 7.523438 C 52.367188 7.523438 52.480469 7.523438 52.59375 7.523438 C 52.59375 7.300781 52.59375 7.078125 52.59375 6.847656 C 52.703125 6.847656 52.816406 6.847656 52.929688 6.847656 C 52.929688 6.570312 52.929688 6.292969 52.929688 6.007812 C 53.039062 6.007812 53.148438 6.007812 53.265625 6.007812 C 53.265625 5.785156 53.265625 5.5625 53.265625 5.332031 C 53.375 5.332031 53.484375 5.332031 53.601562 5.332031 C 53.65625 5.054688 53.710938 4.777344 53.765625 4.492188 C 53.878906 4.492188 53.988281 4.492188 54.101562 4.492188 C 54.101562 4.269531 54.101562 4.046875 54.101562 3.816406 C 54.214844 3.816406 54.324219 3.816406 54.4375 3.816406 C 54.4375 3.59375 54.4375 3.371094 54.4375 3.144531 C 54.957031 2.882812 55.503906 2.953125 56.070312 2.953125 C 56.265625 2.953125 56.265625 2.953125 56.460938 2.953125 C 56.734375 2.953125 57.007812 2.953125 57.277344 2.953125 C 57.695312 2.953125 58.113281 2.953125 58.527344 2.953125 C 58.792969 2.953125 59.054688 2.953125 59.320312 2.953125 C 59.445312 2.953125 59.570312 2.953125 59.699219 2.953125 C 60.226562 2.953125 60.640625 2.976562 61.144531 3.144531 C 61.148438 6.238281 61.152344 9.332031 61.152344 12.425781 C 61.15625 13.859375 61.15625 15.296875 61.15625 16.734375 C 61.160156 17.984375 61.160156 19.234375 61.160156 20.488281 C 61.160156 21.148438 61.160156 21.8125 61.164062 22.476562 C 61.164062 23.097656 61.164062 23.722656 61.164062 24.34375 C 61.164062 24.683594 61.164062 25.023438 61.164062 25.363281 C 61.164062 25.5625 61.164062 25.761719 61.164062 25.96875 C 61.164062 26.230469 61.164062 26.230469 61.164062 26.5 C 61.144531 26.890625 61.144531 26.890625 60.976562 27.058594 C 60.53125 27.078125 60.089844 27.082031 59.644531 27.082031 C 59.511719 27.082031 59.378906 27.082031 59.242188 27.082031 C 58.960938 27.082031 58.675781 27.082031 58.394531 27.082031 C 57.960938 27.082031 57.527344 27.082031 57.09375 27.082031 C 56.820312 27.082031 56.546875 27.082031 56.273438 27.082031 C 56.140625 27.082031 56.011719 27.082031 55.875 27.082031 C 54.960938 27.078125 54.960938 27.078125 54.773438 26.890625 C 54.757812 26.523438 54.753906 26.15625 54.753906 25.789062 C 54.753906 25.675781 54.753906 25.558594 54.753906 25.441406 C 54.753906 25.058594 54.753906 24.675781 54.757812 24.296875 C 54.757812 24.03125 54.757812 23.765625 54.757812 23.503906 C 54.757812 22.808594 54.761719 22.109375 54.761719 21.414062 C 54.761719 20.703125 54.765625 19.996094 54.765625 19.285156 C 54.765625 17.890625 54.769531 16.496094 54.773438 15.101562 C 54.664062 15.101562 54.550781 15.101562 54.4375 15.101562 C 54.4375 15.324219 54.4375 15.546875 54.4375 15.773438 C 54.328125 15.773438 54.214844 15.773438 54.101562 15.773438 C 54.082031 15.898438 54.0625 16.027344 54.039062 16.152344 C 53.941406 16.582031 53.8125 16.910156 53.601562 17.292969 C 53.488281 17.292969 53.378906 17.292969 53.265625 17.292969 C 53.265625 17.511719 53.265625 17.734375 53.265625 17.964844 C 53.152344 17.964844 53.042969 17.964844 52.929688 17.964844 C 52.929688 18.242188 52.929688 18.519531 52.929688 18.808594 C 52.816406 18.808594 52.707031 18.808594 52.59375 18.808594 C 52.59375 19.027344 52.59375 19.25 52.59375 19.480469 C 52.484375 19.480469 52.371094 19.480469 52.257812 19.480469 C 52.203125 19.757812 52.148438 20.035156 52.089844 20.324219 C 51.980469 20.324219 51.871094 20.324219 51.753906 20.324219 C 51.753906 20.546875 51.753906 20.765625 51.753906 20.996094 C 51.644531 20.996094 51.535156 20.996094 51.421875 20.996094 C 51.421875 21.273438 51.421875 21.550781 51.421875 21.839844 C 51.308594 21.839844 51.199219 21.839844 51.085938 21.839844 C 51.085938 22.0625 51.085938 22.28125 51.085938 22.511719 C 50.972656 22.511719 50.863281 22.511719 50.75 22.511719 C 50.695312 22.789062 50.636719 23.066406 50.582031 23.355469 C 49.476562 23.355469 48.367188 23.355469 47.226562 23.355469 C 47.117188 23.132812 47.007812 22.910156 46.894531 22.679688 C 46.726562 22.597656 46.726562 22.597656 46.558594 22.511719 C 46.558594 22.289062 46.558594 22.066406 46.558594 21.839844 C 46.445312 21.839844 46.335938 21.839844 46.222656 21.839844 C 46.222656 21.5625 46.222656 21.28125 46.222656 20.996094 C 46.113281 20.996094 46 20.996094 45.886719 20.996094 C 45.886719 20.773438 45.886719 20.550781 45.886719 20.324219 C 45.777344 20.324219 45.664062 20.324219 45.550781 20.324219 C 45.550781 20.042969 45.550781 19.765625 45.550781 19.480469 C 45.386719 19.480469 45.21875 19.480469 45.046875 19.480469 C 45.046875 19.3125 45.046875 19.148438 45.046875 18.976562 C 44.882812 18.890625 44.882812 18.890625 44.714844 18.808594 C 44.714844 18.527344 44.714844 18.25 44.714844 17.964844 C 44.601562 17.964844 44.492188 17.964844 44.378906 17.964844 C 44.378906 17.742188 44.378906 17.519531 44.378906 17.292969 C 44.265625 17.292969 44.15625 17.292969 44.042969 17.292969 C 43.792969 16.722656 43.707031 16.414062 43.707031 15.773438 C 43.539062 15.773438 43.375 15.773438 43.203125 15.773438 C 43.148438 15.554688 43.09375 15.332031 43.035156 15.101562 C 42.980469 19.046875 42.925781 22.992188 42.867188 27.058594 C 41.878906 27.0625 40.890625 27.066406 39.871094 27.070312 C 39.558594 27.070312 39.246094 27.074219 38.925781 27.074219 C 38.679688 27.074219 38.433594 27.074219 38.183594 27.074219 C 37.992188 27.078125 37.992188 27.078125 37.796875 27.078125 C 36.871094 27.078125 36.871094 27.078125 36.496094 26.890625 C 36.496094 19.054688 36.496094 11.21875 36.496094 3.144531 C 37.128906 2.933594 37.714844 2.953125 38.371094 2.957031 Z M 54.773438 14.257812 C 54.941406 14.597656 54.941406 14.597656 54.941406 14.597656 Z M 54.773438 14.257812 "/>
<path style=" stroke:none;fill-rule:nonzero;fill:rgb(82.745099%,92.941177%,100%);fill-opacity:1;" d="M 88.28125 2.941406 C 88.410156 2.941406 88.539062 2.9375 88.671875 2.9375 C 88.941406 2.9375 89.214844 2.933594 89.484375 2.933594 C 89.898438 2.933594 90.316406 2.929688 90.730469 2.921875 C 90.992188 2.921875 91.257812 2.921875 91.519531 2.921875 C 91.644531 2.917969 91.769531 2.914062 91.898438 2.914062 C 92.75 2.917969 92.75 2.917969 93.15625 3.199219 C 93.417969 3.601562 93.539062 4.03125 93.671875 4.492188 C 93.785156 4.492188 93.894531 4.492188 94.007812 4.492188 C 94.007812 4.769531 94.007812 5.046875 94.007812 5.332031 C 94.121094 5.332031 94.230469 5.332031 94.34375 5.332031 C 94.34375 5.554688 94.34375 5.777344 94.34375 6.007812 C 94.453125 6.007812 94.566406 6.007812 94.679688 6.007812 C 94.847656 6.507812 95.011719 7.007812 95.183594 7.523438 C 95.292969 7.523438 95.402344 7.523438 95.519531 7.523438 C 95.519531 7.800781 95.519531 8.078125 95.519531 8.363281 C 95.628906 8.363281 95.738281 8.363281 95.851562 8.363281 C 95.851562 8.585938 95.851562 8.808594 95.851562 9.039062 C 95.964844 9.039062 96.074219 9.039062 96.1875 9.039062 C 96.257812 9.238281 96.328125 9.441406 96.398438 9.648438 C 96.582031 10.144531 96.757812 10.484375 97.058594 10.933594 C 97.363281 11.394531 97.363281 11.394531 97.363281 12.070312 C 97.472656 12.070312 97.582031 12.070312 97.699219 12.070312 C 97.699219 12.292969 97.699219 12.515625 97.699219 12.742188 C 97.808594 12.742188 97.917969 12.742188 98.035156 12.742188 C 98.035156 13.023438 98.035156 13.300781 98.035156 13.585938 C 98.144531 13.585938 98.253906 13.585938 98.367188 13.585938 C 98.367188 13.808594 98.367188 14.03125 98.367188 14.257812 C 98.535156 14.257812 98.699219 14.257812 98.871094 14.257812 C 99.039062 13.925781 99.039062 13.925781 99.207031 13.585938 C 99.316406 13.585938 99.429688 13.585938 99.542969 13.585938 C 99.542969 13.308594 99.542969 13.03125 99.542969 12.742188 C 99.652344 12.742188 99.761719 12.742188 99.878906 12.742188 C 99.878906 12.464844 99.878906 12.1875 99.878906 11.902344 C 99.988281 11.847656 100.097656 11.789062 100.214844 11.734375 C 100.390625 11.34375 100.558594 10.953125 100.714844 10.554688 C 100.828125 10.554688 100.9375 10.554688 101.050781 10.554688 C 101.050781 10.277344 101.050781 10 101.050781 9.710938 C 101.160156 9.710938 101.273438 9.710938 101.386719 9.710938 C 101.386719 9.378906 101.386719 9.046875 101.386719 8.703125 C 101.496094 8.703125 101.609375 8.703125 101.722656 8.703125 C 101.75 8.558594 101.75 8.558594 101.78125 8.410156 C 101.941406 7.851562 102.238281 7.398438 102.535156 6.902344 C 102.738281 6.488281 102.824219 6.125 102.894531 5.671875 C 103.007812 5.671875 103.117188 5.671875 103.230469 5.671875 C 103.285156 5.449219 103.339844 5.226562 103.398438 4.996094 C 103.507812 4.996094 103.621094 4.996094 103.734375 4.996094 C 103.75 4.878906 103.769531 4.761719 103.785156 4.636719 C 103.917969 4.082031 104.125 3.640625 104.40625 3.144531 C 104.925781 2.882812 105.472656 2.953125 106.042969 2.953125 C 106.238281 2.953125 106.238281 2.953125 106.4375 2.953125 C 106.707031 2.953125 106.980469 2.953125 107.253906 2.953125 C 107.671875 2.953125 108.089844 2.953125 108.507812 2.953125 C 108.773438 2.953125 109.039062 2.953125 109.304688 2.953125 C 109.492188 2.953125 109.492188 2.953125 109.683594 2.953125 C 110.570312 2.957031 110.570312 2.957031 110.945312 3.144531 C 110.945312 11.035156 110.945312 18.929688 110.945312 27.058594 C 108.953125 27.058594 106.960938 27.058594 104.90625 27.058594 C 104.59375 26.746094 104.710938 26.210938 104.707031 25.789062 C 104.703125 25.675781 104.703125 25.558594 104.699219 25.441406 C 104.695312 25.058594 104.691406 24.675781 104.6875 24.296875 C 104.683594 24.03125 104.679688 23.765625 104.675781 23.503906 C 104.667969 22.808594 104.660156 22.109375 104.652344 21.414062 C 104.640625 20.703125 104.632812 19.996094 104.625 19.285156 C 104.605469 17.890625 104.589844 16.496094 104.574219 15.101562 C 104.40625 15.546875 104.242188 15.992188 104.070312 16.449219 C 103.957031 16.449219 103.847656 16.449219 103.734375 16.449219 C 103.679688 16.726562 103.625 17.003906 103.566406 17.292969 C 103.457031 17.292969 103.34375 17.292969 103.230469 17.292969 C 103.230469 17.511719 103.230469 17.734375 103.230469 17.964844 C 103.121094 17.964844 103.011719 17.964844 102.894531 17.964844 C 102.894531 18.242188 102.894531 18.519531 102.894531 18.808594 C 102.785156 18.808594 102.675781 18.808594 102.558594 18.808594 C 102.558594 19.027344 102.558594 19.25 102.558594 19.480469 C 102.449219 19.480469 102.339844 19.480469 102.226562 19.480469 C 102.167969 19.757812 102.113281 20.035156 102.058594 20.324219 C 101.945312 20.324219 101.835938 20.324219 101.722656 20.324219 C 101.722656 20.546875 101.722656 20.765625 101.722656 20.996094 C 101.613281 20.996094 101.5 20.996094 101.386719 20.996094 C 101.386719 21.273438 101.386719 21.550781 101.386719 21.839844 C 101.277344 21.839844 101.164062 21.839844 101.050781 21.839844 C 101.050781 22.0625 101.050781 22.28125 101.050781 22.511719 C 100.941406 22.511719 100.828125 22.511719 100.714844 22.511719 C 100.714844 22.679688 100.714844 22.84375 100.714844 23.015625 C 100.378906 23.355469 100.378906 23.355469 100.050781 23.390625 C 99.851562 23.390625 99.851562 23.390625 99.652344 23.386719 C 99.4375 23.386719 99.4375 23.386719 99.21875 23.382812 C 98.996094 23.378906 98.996094 23.378906 98.765625 23.375 C 98.617188 23.375 98.464844 23.371094 98.3125 23.371094 C 97.9375 23.367188 97.566406 23.359375 97.195312 23.355469 C 97.085938 23.078125 96.972656 22.796875 96.859375 22.511719 C 96.75 22.511719 96.636719 22.511719 96.523438 22.511719 C 96.523438 22.289062 96.523438 22.066406 96.523438 21.839844 C 96.414062 21.839844 96.304688 21.839844 96.1875 21.839844 C 96.1875 21.5625 96.1875 21.28125 96.1875 20.996094 C 96.078125 20.996094 95.96875 20.996094 95.851562 20.996094 C 95.714844 20.695312 95.574219 20.394531 95.433594 20.089844 C 95.316406 19.839844 95.316406 19.839844 95.199219 19.582031 C 95.015625 19.144531 95.015625 19.144531 95.015625 18.808594 C 94.90625 18.808594 94.792969 18.808594 94.679688 18.808594 C 94.679688 18.527344 94.679688 18.25 94.679688 17.964844 C 94.570312 17.964844 94.457031 17.964844 94.34375 17.964844 C 93.574219 16.574219 93.574219 16.574219 93.671875 15.773438 C 93.507812 15.773438 93.339844 15.773438 93.171875 15.773438 C 93.117188 15.554688 93.058594 15.332031 93.003906 15.101562 C 93 15.25 93 15.394531 92.996094 15.546875 C 92.980469 16.933594 92.964844 18.320312 92.945312 19.703125 C 92.9375 20.417969 92.929688 21.128906 92.917969 21.839844 C 92.910156 22.527344 92.902344 23.214844 92.894531 23.902344 C 92.890625 24.164062 92.886719 24.425781 92.882812 24.691406 C 92.878906 25.054688 92.875 25.421875 92.871094 25.789062 C 92.867188 26 92.863281 26.207031 92.863281 26.421875 C 92.835938 26.890625 92.835938 26.890625 92.667969 27.058594 C 92.238281 27.078125 91.808594 27.085938 91.378906 27.085938 C 91.25 27.089844 91.121094 27.089844 90.988281 27.089844 C 90.714844 27.089844 90.441406 27.089844 90.167969 27.089844 C 89.746094 27.089844 89.328125 27.09375 88.90625 27.097656 C 88.640625 27.097656 88.375 27.097656 88.109375 27.097656 C 87.984375 27.097656 87.859375 27.101562 87.726562 27.101562 C 86.835938 27.097656 86.835938 27.097656 86.464844 26.722656 C 86.421875 26.3125 86.421875 26.3125 86.421875 25.785156 C 86.421875 25.589844 86.421875 25.390625 86.421875 25.183594 C 86.421875 24.964844 86.425781 24.746094 86.425781 24.519531 C 86.425781 24.289062 86.425781 24.054688 86.425781 23.824219 C 86.425781 23.191406 86.425781 22.558594 86.429688 21.925781 C 86.433594 21.265625 86.433594 20.605469 86.433594 19.949219 C 86.433594 18.695312 86.4375 17.445312 86.441406 16.195312 C 86.441406 14.773438 86.445312 13.351562 86.445312 11.925781 C 86.449219 9 86.457031 6.070312 86.464844 3.144531 C 87.074219 2.9375 87.644531 2.945312 88.28125 2.941406 Z M 104.738281 14.257812 C 104.90625 14.597656 104.90625 14.597656 104.90625 14.597656 Z M 104.738281 14.257812 "/>
<path style=" stroke:none;fill-rule:nonzero;fill:rgb(13.725491%,73.333335%,71.764708%);fill-opacity:1;" d="M 1.285156 1.292969 C 3.222656 1.292969 5.160156 1.292969 7.152344 1.292969 C 7.265625 1.742188 7.378906 2.1875 7.488281 2.636719 C 7.65625 2.636719 7.820312 2.636719 7.992188 2.636719 C 7.992188 2.75 7.992188 2.859375 7.992188 2.976562 C 8.148438 3.011719 8.148438 3.011719 8.308594 3.050781 C 8.664062 3.144531 8.664062 3.144531 9 3.3125 C 9.320312 3.328125 9.644531 3.332031 9.96875 3.332031 C 10.175781 3.332031 10.382812 3.332031 10.59375 3.332031 C 10.824219 3.332031 11.054688 3.332031 11.285156 3.332031 C 11.523438 3.332031 11.765625 3.332031 12.007812 3.332031 C 12.664062 3.332031 13.320312 3.332031 13.976562 3.328125 C 14.660156 3.328125 15.347656 3.328125 16.03125 3.328125 C 17.328125 3.328125 18.628906 3.324219 19.925781 3.324219 C 21.402344 3.324219 22.882812 3.320312 24.359375 3.320312 C 27.398438 3.320312 30.4375 3.316406 33.480469 3.3125 C 33.5 4.449219 33.5 4.449219 33.3125 4.828125 C 33.273438 5.085938 33.242188 5.347656 33.21875 5.605469 C 33.203125 5.746094 33.1875 5.882812 33.175781 6.023438 C 33.164062 6.128906 33.152344 6.234375 33.144531 6.34375 C 33.03125 6.34375 32.921875 6.34375 32.808594 6.34375 C 32.808594 6.84375 32.808594 7.34375 32.808594 7.859375 C 32.699219 7.859375 32.585938 7.859375 32.472656 7.859375 C 32.472656 8.414062 32.472656 8.972656 32.472656 9.542969 C 32.417969 9.542969 32.363281 9.542969 32.304688 9.542969 C 32.292969 9.695312 32.292969 9.695312 32.28125 9.851562 C 32.269531 9.984375 32.253906 10.121094 32.242188 10.257812 C 32.226562 10.457031 32.226562 10.457031 32.207031 10.664062 C 32.132812 11.078125 31.992188 11.359375 31.800781 11.734375 C 31.726562 12.089844 31.726562 12.089844 31.699219 12.449219 C 31.667969 12.761719 31.667969 12.761719 31.632812 13.082031 C 31.523438 13.082031 31.414062 13.082031 31.300781 13.082031 C 31.300781 13.582031 31.300781 14.082031 31.300781 14.597656 C 31.1875 14.597656 31.078125 14.597656 30.964844 14.597656 C 30.96875 14.722656 30.972656 14.851562 30.976562 14.984375 C 30.980469 15.152344 30.980469 15.320312 30.984375 15.492188 C 30.988281 15.65625 30.992188 15.824219 30.996094 15.996094 C 30.964844 16.449219 30.964844 16.449219 30.628906 16.953125 C 30.15625 17.003906 30.15625 17.003906 29.601562 16.984375 C 29.324219 16.980469 29.324219 16.980469 29.042969 16.972656 C 28.902344 16.964844 28.761719 16.960938 28.617188 16.953125 C 28.617188 17.066406 28.617188 17.175781 28.617188 17.292969 C 27.675781 17.292969 26.734375 17.292969 25.765625 17.292969 C 25.765625 17.402344 25.765625 17.511719 25.765625 17.628906 C 25.613281 17.636719 25.457031 17.648438 25.300781 17.660156 C 25 17.679688 25 17.679688 24.695312 17.703125 C 24.5 17.714844 24.300781 17.730469 24.09375 17.742188 C 23.601562 17.765625 23.601562 17.765625 23.25 17.964844 C 22.882812 18.03125 22.511719 18.089844 22.140625 18.144531 C 21.839844 18.1875 21.839844 18.1875 21.535156 18.234375 C 21.382812 18.257812 21.230469 18.277344 21.070312 18.300781 C 21.070312 18.355469 21.070312 18.414062 21.070312 18.46875 C 19.742188 18.554688 19.742188 18.554688 18.386719 18.636719 C 18.386719 18.695312 18.386719 18.75 18.386719 18.808594 C 17.613281 18.808594 16.839844 18.808594 16.039062 18.808594 C 16.316406 19.730469 16.316406 19.730469 17.074219 20.273438 C 18.167969 20.640625 19.332031 20.574219 20.472656 20.578125 C 20.722656 20.582031 20.972656 20.582031 21.222656 20.585938 C 21.878906 20.59375 22.53125 20.597656 23.183594 20.605469 C 23.855469 20.609375 24.523438 20.617188 25.191406 20.625 C 26.5 20.640625 27.808594 20.648438 29.121094 20.660156 C 29.175781 21.714844 29.230469 22.773438 29.285156 23.859375 C 29.34375 23.859375 29.398438 23.859375 29.453125 23.859375 C 29.460938 24.132812 29.460938 24.40625 29.464844 24.679688 C 29.46875 24.910156 29.46875 24.910156 29.472656 25.140625 C 29.453125 25.542969 29.453125 25.542969 29.285156 25.878906 C 28.625 25.886719 27.964844 25.886719 27.304688 25.890625 C 27.121094 25.890625 26.9375 25.894531 26.746094 25.894531 C 26.5625 25.894531 26.382812 25.894531 26.191406 25.898438 C 26.027344 25.898438 25.859375 25.898438 25.6875 25.898438 C 25.191406 25.882812 24.710938 25.847656 24.214844 25.796875 C 23.296875 25.710938 22.382812 25.675781 21.457031 25.660156 C 21.296875 25.65625 21.132812 25.652344 20.96875 25.648438 C 20.460938 25.636719 19.953125 25.628906 19.445312 25.617188 C 19.101562 25.609375 18.753906 25.601562 18.40625 25.59375 C 17.5625 25.578125 16.71875 25.558594 15.875 25.542969 C 15.875 25.433594 15.875 25.320312 15.875 25.207031 C 15.484375 25.207031 15.097656 25.207031 14.699219 25.207031 C 14.644531 25.097656 14.589844 24.984375 14.53125 24.871094 C 14.226562 24.710938 13.914062 24.566406 13.597656 24.429688 C 13.34375 24.316406 13.34375 24.316406 13.085938 24.199219 C 12.953125 24.144531 12.824219 24.085938 12.6875 24.027344 C 12.6875 23.917969 12.6875 23.804688 12.6875 23.691406 C 12.578125 23.691406 12.464844 23.691406 12.351562 23.691406 C 12.351562 23.578125 12.351562 23.46875 12.351562 23.355469 C 12.1875 23.355469 12.019531 23.355469 11.847656 23.355469 C 11.847656 23.1875 11.847656 23.019531 11.847656 22.847656 C 11.738281 22.847656 11.628906 22.847656 11.511719 22.847656 C 11.511719 22.738281 11.511719 22.625 11.511719 22.511719 C 11.402344 22.511719 11.292969 22.511719 11.179688 22.511719 C 11.179688 22.402344 11.179688 22.289062 11.179688 22.175781 C 11.066406 22.175781 10.957031 22.175781 10.84375 22.175781 C 10.84375 22.0625 10.84375 21.953125 10.84375 21.839844 C 10.730469 21.839844 10.621094 21.839844 10.507812 21.839844 C 10.453125 21.5625 10.398438 21.28125 10.339844 20.996094 C 10.230469 20.996094 10.117188 20.996094 10.003906 20.996094 C 9.652344 20.464844 9.550781 20.078125 9.40625 19.460938 C 9.304688 18.828125 9.304688 18.828125 9 18.300781 C 8.992188 17.964844 8.992188 17.628906 9 17.292969 C 8.832031 17.234375 8.667969 17.179688 8.496094 17.121094 C 8.496094 16.789062 8.496094 16.457031 8.496094 16.113281 C 8.386719 16.113281 8.273438 16.113281 8.160156 16.113281 C 8.160156 15.777344 8.160156 15.445312 8.160156 15.101562 C 8.050781 15.101562 7.9375 15.101562 7.824219 15.101562 C 7.824219 14.710938 7.824219 14.324219 7.824219 13.921875 C 7.714844 13.921875 7.601562 13.921875 7.488281 13.921875 C 7.1875 13.277344 7.121094 12.78125 7.152344 12.070312 C 7.597656 12.070312 8.039062 12.070312 8.496094 12.070312 C 8.496094 11.957031 8.496094 11.847656 8.496094 11.734375 C 8.6875 11.710938 8.875 11.691406 9.070312 11.671875 C 9.269531 11.636719 9.464844 11.601562 9.667969 11.566406 C 9.753906 11.398438 9.753906 11.398438 9.835938 11.226562 C 10.28125 11.226562 10.722656 11.226562 11.179688 11.226562 C 11.179688 11.117188 11.179688 11.003906 11.179688 10.890625 C 11.511719 10.890625 11.84375 10.890625 12.183594 10.890625 C 12.351562 11.390625 12.351562 11.390625 12.519531 11.902344 C 12.574219 11.902344 12.628906 11.902344 12.6875 11.902344 C 12.882812 12.570312 13.066406 13.234375 13.191406 13.921875 C 13.578125 13.921875 13.964844 13.921875 14.363281 13.921875 C 14.363281 13.8125 14.363281 13.699219 14.363281 13.585938 C 14.519531 13.574219 14.675781 13.566406 14.835938 13.554688 C 15.035156 13.539062 15.238281 13.527344 15.445312 13.511719 C 15.644531 13.5 15.84375 13.484375 16.050781 13.472656 C 16.523438 13.472656 16.523438 13.472656 16.710938 13.25 C 17.183594 13.203125 17.652344 13.171875 18.125 13.144531 C 18.582031 13.121094 18.582031 13.121094 18.890625 12.742188 C 19.320312 12.691406 19.738281 12.65625 20.167969 12.636719 C 20.289062 12.632812 20.40625 12.625 20.527344 12.617188 C 20.820312 12.601562 21.113281 12.589844 21.40625 12.574219 C 21.40625 12.519531 21.40625 12.464844 21.40625 12.40625 C 21.609375 12.398438 21.8125 12.386719 22.023438 12.375 C 22.289062 12.363281 22.554688 12.347656 22.820312 12.332031 C 22.957031 12.328125 23.089844 12.320312 23.230469 12.3125 C 23.878906 12.339844 23.878906 12.339844 24.425781 12.070312 C 24.75 12.042969 24.75 12.042969 25.085938 12.015625 C 25.445312 11.988281 25.445312 11.988281 25.765625 11.902344 C 26.03125 11.578125 26.03125 11.578125 26.101562 11.226562 C 26.210938 11.226562 26.324219 11.226562 26.4375 11.226562 C 26.4375 10.449219 26.4375 9.671875 26.4375 8.871094 C 24.601562 8.867188 22.769531 8.863281 20.9375 8.863281 C 20.085938 8.859375 19.234375 8.859375 18.382812 8.855469 C 17.5625 8.855469 16.742188 8.855469 15.917969 8.855469 C 15.605469 8.855469 15.292969 8.851562 14.976562 8.851562 C 14.539062 8.851562 14.101562 8.851562 13.664062 8.851562 C 13.46875 8.851562 13.46875 8.851562 13.265625 8.847656 C 12.675781 8.796875 12.675781 8.796875 12.183594 9.039062 C 11.726562 9.058594 11.277344 9.070312 10.820312 9.070312 C 10.695312 9.070312 10.570312 9.074219 10.441406 9.078125 C 9.617188 9.078125 8.941406 8.964844 8.160156 8.703125 C 8.160156 8.589844 8.160156 8.480469 8.160156 8.363281 C 7.773438 8.363281 7.386719 8.363281 6.988281 8.363281 C 6.929688 8.253906 6.875 8.140625 6.820312 8.027344 C 6.429688 7.851562 6.039062 7.679688 5.644531 7.523438 C 5.644531 7.410156 5.644531 7.300781 5.644531 7.1875 C 5.480469 7.1875 5.3125 7.1875 5.140625 7.1875 C 5.140625 7.074219 5.140625 6.964844 5.140625 6.847656 C 5.039062 6.835938 4.933594 6.820312 4.828125 6.808594 C 4.472656 6.679688 4.472656 6.679688 4.3125 6.355469 C 4.15625 5.960938 4.15625 5.960938 3.695312 5.796875 C 3.5625 5.753906 3.433594 5.714844 3.296875 5.671875 C 3.296875 5.558594 3.296875 5.449219 3.296875 5.332031 C 3.1875 5.332031 3.078125 5.332031 2.960938 5.332031 C 2.960938 5.222656 2.960938 5.109375 2.960938 4.996094 C 2.851562 4.996094 2.742188 4.996094 2.625 4.996094 C 2.40625 4.550781 2.183594 4.105469 1.957031 3.648438 C 1.902344 3.648438 1.84375 3.648438 1.789062 3.648438 C 1.789062 3.316406 1.789062 2.980469 1.789062 2.636719 C 1.621094 2.582031 1.457031 2.527344 1.285156 2.46875 C 1.285156 2.082031 1.285156 1.691406 1.285156 1.292969 Z M 1.285156 1.292969 "/>
<path style=" stroke:none;fill-rule:nonzero;fill:rgb(82.745099%,92.941177%,100%);fill-opacity:1;" d="M 66.207031 2.953125 C 66.382812 2.953125 66.382812 2.953125 66.5625 2.953125 C 66.808594 2.953125 67.058594 2.953125 67.304688 2.953125 C 67.683594 2.953125 68.0625 2.953125 68.441406 2.953125 C 68.679688 2.953125 68.921875 2.953125 69.160156 2.953125 C 69.492188 2.953125 69.492188 2.953125 69.824219 2.953125 C 70.367188 2.976562 70.367188 2.976562 70.871094 3.144531 C 70.871094 6.089844 70.871094 9.035156 70.871094 12.070312 C 70.980469 12.070312 71.089844 12.070312 71.207031 12.070312 C 71.207031 11.902344 71.207031 11.738281 71.207031 11.566406 C 71.316406 11.566406 71.425781 11.566406 71.539062 11.566406 C 71.597656 11.34375 71.652344 11.121094 71.707031 10.890625 C 71.820312 10.890625 71.929688 10.890625 72.042969 10.890625 C 72.042969 10.78125 72.042969 10.667969 72.042969 10.554688 C 72.15625 10.554688 72.265625 10.554688 72.378906 10.554688 C 72.378906 10.441406 72.378906 10.332031 72.378906 10.21875 C 72.488281 10.21875 72.601562 10.21875 72.714844 10.21875 C 72.714844 10.105469 72.714844 9.996094 72.714844 9.878906 C 72.824219 9.878906 72.9375 9.878906 73.050781 9.878906 C 73.050781 9.714844 73.050781 9.546875 73.050781 9.375 C 73.160156 9.375 73.269531 9.375 73.386719 9.375 C 73.4375 9.269531 73.488281 9.167969 73.542969 9.058594 C 73.65625 8.828125 73.773438 8.597656 73.886719 8.363281 C 74 8.363281 74.109375 8.363281 74.222656 8.363281 C 74.222656 8.199219 74.222656 8.03125 74.222656 7.859375 C 74.445312 7.75 74.667969 7.636719 74.894531 7.523438 C 74.894531 7.410156 74.894531 7.300781 74.894531 7.1875 C 75.171875 6.90625 75.453125 6.625 75.734375 6.34375 C 75.949219 5.980469 75.949219 5.980469 76.066406 5.671875 C 76.234375 5.671875 76.398438 5.671875 76.570312 5.671875 C 76.570312 5.558594 76.570312 5.449219 76.570312 5.332031 C 76.683594 5.332031 76.792969 5.332031 76.90625 5.332031 C 77.015625 5.054688 77.128906 4.777344 77.242188 4.492188 C 77.351562 4.492188 77.464844 4.492188 77.578125 4.492188 C 77.578125 4.378906 77.578125 4.269531 77.578125 4.152344 C 77.6875 4.152344 77.796875 4.152344 77.914062 4.152344 C 77.96875 3.933594 78.023438 3.710938 78.078125 3.480469 C 78.191406 3.480469 78.300781 3.480469 78.414062 3.480469 C 78.472656 3.3125 78.527344 3.148438 78.582031 2.976562 C 79.464844 2.972656 80.34375 2.96875 81.222656 2.964844 C 81.523438 2.964844 81.824219 2.964844 82.125 2.960938 C 82.554688 2.960938 82.984375 2.960938 83.414062 2.957031 C 83.546875 2.957031 83.683594 2.957031 83.820312 2.957031 C 84.144531 2.957031 84.464844 2.964844 84.785156 2.976562 C 84.953125 3.144531 84.953125 3.144531 85.015625 3.511719 C 84.925781 4.214844 84.605469 4.492188 84.117188 4.996094 C 84.003906 4.996094 83.894531 4.996094 83.78125 4.996094 C 83.78125 5.109375 83.78125 5.21875 83.78125 5.332031 C 83.671875 5.332031 83.558594 5.332031 83.445312 5.332031 C 83.445312 5.445312 83.445312 5.554688 83.445312 5.671875 C 83.335938 5.671875 83.222656 5.671875 83.109375 5.671875 C 82.945312 6.253906 82.945312 6.253906 82.773438 6.847656 C 82.609375 6.847656 82.441406 6.847656 82.273438 6.847656 C 82.273438 6.960938 82.273438 7.070312 82.273438 7.1875 C 82.160156 7.1875 82.050781 7.1875 81.9375 7.1875 C 81.9375 7.296875 81.9375 7.40625 81.9375 7.523438 C 81.824219 7.523438 81.714844 7.523438 81.601562 7.523438 C 81.601562 7.632812 81.601562 7.746094 81.601562 7.859375 C 81.492188 7.859375 81.378906 7.859375 81.265625 7.859375 C 81.210938 8.136719 81.15625 8.414062 81.097656 8.703125 C 80.988281 8.703125 80.875 8.703125 80.761719 8.703125 C 80.761719 8.8125 80.761719 8.925781 80.761719 9.039062 C 80.652344 9.039062 80.542969 9.039062 80.425781 9.039062 C 80.425781 9.148438 80.425781 9.261719 80.425781 9.375 C 80.316406 9.375 80.207031 9.375 80.09375 9.375 C 79.980469 9.652344 79.871094 9.929688 79.757812 10.21875 C 79.644531 10.21875 79.535156 10.21875 79.421875 10.21875 C 79.421875 10.328125 79.421875 10.441406 79.421875 10.554688 C 79.3125 10.554688 79.199219 10.554688 79.085938 10.554688 C 79.085938 10.664062 79.085938 10.777344 79.085938 10.890625 C 78.976562 10.890625 78.863281 10.890625 78.75 10.890625 C 78.695312 11.167969 78.640625 11.445312 78.582031 11.734375 C 78.472656 11.734375 78.363281 11.734375 78.246094 11.734375 C 78.246094 11.84375 78.246094 11.957031 78.246094 12.070312 C 78.136719 12.070312 78.027344 12.070312 77.914062 12.070312 C 77.914062 12.179688 77.914062 12.292969 77.914062 12.40625 C 77.800781 12.40625 77.691406 12.40625 77.578125 12.40625 C 77.578125 12.519531 77.578125 12.628906 77.578125 12.742188 C 77.464844 12.742188 77.355469 12.742188 77.242188 12.742188 C 77.242188 12.910156 77.242188 13.078125 77.242188 13.25 C 77.132812 13.25 77.019531 13.25 76.90625 13.25 C 76.851562 13.582031 76.796875 13.914062 76.738281 14.257812 C 76.847656 14.257812 76.960938 14.257812 77.074219 14.257812 C 77.460938 14.691406 77.578125 14.84375 77.578125 15.4375 C 77.6875 15.4375 77.796875 15.4375 77.914062 15.4375 C 77.914062 15.550781 77.914062 15.660156 77.914062 15.773438 C 78.023438 15.773438 78.132812 15.773438 78.246094 15.773438 C 78.304688 15.996094 78.359375 16.21875 78.414062 16.449219 C 78.527344 16.449219 78.636719 16.449219 78.75 16.449219 C 78.816406 16.601562 78.816406 16.601562 78.886719 16.753906 C 79.0625 17.128906 79.0625 17.128906 79.347656 17.363281 C 79.664062 17.710938 79.695312 18.011719 79.757812 18.46875 C 79.867188 18.46875 79.976562 18.46875 80.09375 18.46875 C 80.59375 19.054688 80.59375 19.054688 80.59375 19.480469 C 80.707031 19.480469 80.816406 19.480469 80.929688 19.480469 C 80.929688 19.648438 80.929688 19.8125 80.929688 19.984375 C 81.042969 19.984375 81.152344 19.984375 81.265625 19.984375 C 81.375 20.320312 81.488281 20.652344 81.601562 20.996094 C 81.710938 20.996094 81.824219 20.996094 81.9375 20.996094 C 82.320312 21.429688 82.441406 21.582031 82.441406 22.175781 C 82.550781 22.175781 82.660156 22.175781 82.773438 22.175781 C 82.773438 22.285156 82.773438 22.398438 82.773438 22.511719 C 82.886719 22.511719 82.996094 22.511719 83.109375 22.511719 C 83.78125 23.648438 83.78125 23.648438 83.78125 24.027344 C 83.945312 24.027344 84.113281 24.027344 84.285156 24.027344 C 84.285156 24.25 84.285156 24.472656 84.285156 24.703125 C 84.394531 24.703125 84.503906 24.703125 84.621094 24.703125 C 84.621094 24.867188 84.621094 25.035156 84.621094 25.207031 C 84.730469 25.207031 84.839844 25.207031 84.953125 25.207031 C 84.953125 25.316406 84.953125 25.429688 84.953125 25.542969 C 85.066406 25.542969 85.175781 25.542969 85.289062 25.542969 C 85.574219 25.828125 85.574219 25.828125 85.792969 26.21875 C 85.738281 26.496094 85.683594 26.773438 85.625 27.058594 C 83.46875 27.058594 81.308594 27.058594 79.085938 27.058594 C 79.085938 26.949219 79.085938 26.835938 79.085938 26.722656 C 78.976562 26.722656 78.863281 26.722656 78.75 26.722656 C 78.75 26.554688 78.75 26.390625 78.75 26.21875 C 78.640625 26.21875 78.53125 26.21875 78.414062 26.21875 C 78.359375 25.996094 78.304688 25.773438 78.246094 25.542969 C 78.136719 25.542969 78.027344 25.542969 77.914062 25.542969 C 77.914062 25.433594 77.914062 25.320312 77.914062 25.207031 C 77.800781 25.207031 77.691406 25.207031 77.578125 25.207031 C 77.332031 24.761719 77.242188 24.550781 77.242188 24.027344 C 77.132812 24.027344 77.019531 24.027344 76.90625 24.027344 C 76.90625 23.917969 76.90625 23.804688 76.90625 23.691406 C 76.796875 23.691406 76.683594 23.691406 76.570312 23.691406 C 76.515625 23.414062 76.460938 23.136719 76.402344 22.847656 C 76.292969 22.847656 76.183594 22.847656 76.066406 22.847656 C 76.066406 22.738281 76.066406 22.625 76.066406 22.511719 C 75.957031 22.511719 75.847656 22.511719 75.734375 22.511719 C 75.527344 22.230469 75.527344 22.230469 75.3125 21.859375 C 75.078125 21.457031 74.886719 21.160156 74.558594 20.828125 C 74.558594 20.660156 74.558594 20.496094 74.558594 20.324219 C 74.449219 20.324219 74.335938 20.324219 74.222656 20.324219 C 74.222656 20.210938 74.222656 20.101562 74.222656 19.984375 C 74.113281 19.984375 74.003906 19.984375 73.886719 19.984375 C 73.84375 19.792969 73.796875 19.605469 73.753906 19.40625 C 73.6875 19.207031 73.621094 19.011719 73.554688 18.808594 C 73.386719 18.75 73.222656 18.695312 73.050781 18.636719 C 72.820312 18.421875 72.59375 18.195312 72.378906 17.964844 C 72.378906 18.132812 72.378906 18.296875 72.378906 18.46875 C 72.214844 18.46875 72.046875 18.46875 71.875 18.46875 C 71.875 18.582031 71.875 18.691406 71.875 18.808594 C 71.765625 18.808594 71.65625 18.808594 71.539062 18.808594 C 71.539062 18.917969 71.539062 19.027344 71.539062 19.144531 C 71.429688 19.144531 71.320312 19.144531 71.207031 19.144531 C 71.207031 19.253906 71.207031 19.367188 71.207031 19.480469 C 71.09375 19.480469 70.984375 19.480469 70.871094 19.480469 C 70.871094 19.574219 70.871094 19.664062 70.871094 19.761719 C 70.875 20.71875 70.878906 21.679688 70.878906 22.636719 C 70.878906 22.996094 70.882812 23.355469 70.882812 23.710938 C 70.882812 24.226562 70.886719 24.738281 70.886719 25.253906 C 70.886719 25.496094 70.886719 25.496094 70.890625 25.742188 C 70.890625 25.890625 70.890625 26.039062 70.890625 26.191406 C 70.890625 26.324219 70.890625 26.453125 70.890625 26.589844 C 70.871094 26.890625 70.871094 26.890625 70.703125 27.058594 C 70.257812 27.078125 69.816406 27.082031 69.371094 27.082031 C 69.171875 27.082031 69.171875 27.082031 68.96875 27.082031 C 68.683594 27.082031 68.402344 27.082031 68.121094 27.082031 C 67.6875 27.082031 67.253906 27.082031 66.820312 27.082031 C 66.542969 27.082031 66.269531 27.082031 65.996094 27.082031 C 65.867188 27.082031 65.734375 27.082031 65.601562 27.082031 C 64.683594 27.078125 64.683594 27.078125 64.5 26.890625 C 64.480469 26.585938 64.476562 26.277344 64.476562 25.96875 C 64.476562 25.667969 64.476562 25.667969 64.476562 25.363281 C 64.476562 25.140625 64.480469 24.921875 64.480469 24.691406 C 64.480469 24.457031 64.480469 24.222656 64.480469 23.988281 C 64.480469 23.351562 64.480469 22.714844 64.480469 22.078125 C 64.484375 21.414062 64.484375 20.75 64.484375 20.082031 C 64.484375 18.824219 64.484375 17.5625 64.488281 16.300781 C 64.488281 14.867188 64.488281 13.433594 64.488281 12 C 64.492188 9.046875 64.496094 6.09375 64.5 3.144531 C 65.097656 2.945312 65.578125 2.953125 66.207031 2.953125 Z M 70.703125 12.070312 C 70.871094 12.40625 70.871094 12.40625 70.871094 12.40625 Z M 70.703125 12.070312 "/>
<path style=" stroke:none;fill-rule:nonzero;fill:rgb(100%,63.137257%,25.882354%);fill-opacity:1;" d="M 21.574219 28.238281 C 23.066406 28.238281 24.5625 28.238281 26.101562 28.238281 C 26.101562 28.570312 26.101562 28.90625 26.101562 29.25 C 25.933594 29.25 25.769531 29.25 25.597656 29.25 C 25.597656 29.359375 25.597656 29.472656 25.597656 29.585938 C 25.488281 29.585938 25.375 29.585938 25.261719 29.585938 C 25.261719 29.695312 25.261719 29.808594 25.261719 29.921875 C 24.433594 29.921875 23.601562 29.921875 22.746094 29.921875 C 22.746094 29.8125 22.746094 29.699219 22.746094 29.585938 C 22.636719 29.585938 22.527344 29.585938 22.414062 29.585938 C 22.414062 29.476562 22.414062 29.363281 22.414062 29.25 C 22.246094 29.25 22.082031 29.25 21.910156 29.25 C 21.910156 29.136719 21.910156 29.027344 21.910156 28.914062 C 21.796875 28.914062 21.6875 28.914062 21.574219 28.914062 C 21.574219 28.691406 21.574219 28.46875 21.574219 28.238281 Z M 21.574219 28.238281 "/>
<path style=" stroke:none;fill-rule:nonzero;fill:rgb(100%,63.137257%,25.882354%);fill-opacity:1;" d="M 14.53125 28.238281 C 15.914062 28.238281 17.296875 28.238281 18.722656 28.238281 C 18.722656 28.515625 18.722656 28.792969 18.722656 29.082031 C 18.558594 29.136719 18.390625 29.191406 18.21875 29.25 C 18.21875 29.359375 18.21875 29.472656 18.21875 29.585938 C 18.109375 29.585938 18 29.585938 17.886719 29.585938 C 17.886719 29.695312 17.886719 29.808594 17.886719 29.921875 C 17 29.921875 16.113281 29.921875 15.203125 29.921875 C 15.148438 29.699219 15.089844 29.476562 15.035156 29.25 C 14.867188 29.25 14.703125 29.25 14.53125 29.25 C 14.53125 28.914062 14.53125 28.582031 14.53125 28.238281 Z M 14.53125 28.238281 "/>
</g>
</svg>
